<svg width="300" height="150" viewBox="0 0 300 150" fill="none" xmlns="http://www.w3.org/2000/svg">
<rect x="8" y="2" width="81" height="80" rx="5" fill="#6F1111"/>
<rect x="109" y="2" width="81" height="80" rx="5" fill="#AA1919"/>
<rect x="207" y="2" width="81" height="80" rx="5" fill="#D31F1F"/>
<path d="M23.05 122V110.572H13.95V122H10.9225V97.9025H13.95V108.087H23.05V97.9025H26.0775V122H23.05ZM45.6988 117.975C45.6988 118.71 45.8213 119.247 46.0663 119.585C46.3113 119.923 46.6905 120.174 47.2038 120.337L46.4863 122.403C45.693 122.298 44.9988 122.047 44.4038 121.65C43.8088 121.242 43.3772 120.629 43.1088 119.812C42.4438 120.664 41.6155 121.312 40.6238 121.755C39.6322 122.187 38.5355 122.403 37.3338 122.403C35.4905 122.403 34.038 121.883 32.9763 120.845C31.9147 119.807 31.3838 118.43 31.3838 116.715C31.3838 114.813 32.1247 113.355 33.6063 112.34C35.088 111.325 37.2288 110.817 40.0288 110.817H42.7413V109.277C42.7413 107.947 42.3505 107.008 41.5688 106.46C40.7988 105.9 39.7255 105.62 38.3488 105.62C37.7422 105.62 37.0305 105.696 36.2138 105.847C35.3972 105.987 34.5105 106.227 33.5538 106.565L32.7838 104.342C33.9155 103.922 34.9772 103.625 35.9688 103.45C36.9605 103.275 37.9055 103.187 38.8038 103.187C41.1022 103.187 42.823 103.724 43.9663 104.797C45.1213 105.859 45.6988 107.306 45.6988 109.137V117.975ZM38.0863 120.162C38.9963 120.162 39.8655 119.935 40.6938 119.48C41.5222 119.013 42.2047 118.372 42.7413 117.555V112.812H40.0813C38.0513 112.812 36.6163 113.162 35.7763 113.862C34.948 114.562 34.5338 115.502 34.5338 116.68C34.5338 117.823 34.8255 118.692 35.4088 119.287C36.0038 119.871 36.8963 120.162 38.0863 120.162ZM56.4302 105.97C57.1068 105.083 57.8827 104.401 58.7577 103.923C59.6443 103.432 60.6185 103.187 61.6802 103.187C63.3252 103.187 64.6552 103.584 65.6702 104.377C66.6852 105.171 67.426 106.291 67.8927 107.737C68.3593 109.172 68.5927 110.852 68.5927 112.777C68.5927 114.632 68.3127 116.289 67.7527 117.747C67.1927 119.194 66.3702 120.332 65.2852 121.16C64.2118 121.988 62.8818 122.403 61.2952 122.403C59.1602 122.403 57.486 121.632 56.2727 120.092L56.0627 122H53.4902V96.1525L56.4302 95.785V105.97ZM60.5952 120.022C62.1352 120.022 63.3193 119.427 64.1477 118.237C64.976 117.047 65.3902 115.222 65.3902 112.76C65.3902 111.15 65.2268 109.814 64.9002 108.752C64.5735 107.679 64.0835 106.88 63.4302 106.355C62.7885 105.818 61.9952 105.55 61.0502 105.55C60.0235 105.55 59.1193 105.859 58.3377 106.477C57.5677 107.084 56.9318 107.761 56.4302 108.507V117.642C56.9085 118.366 57.5093 118.943 58.2327 119.375C58.9677 119.807 59.7552 120.022 60.5952 120.022ZM83.804 103.572V119.672H89.0015V122H75.1765V119.672H80.864V105.9H75.3515V103.572H83.804ZM81.459 94.945C82.1123 94.945 82.6315 95.1433 83.0165 95.54C83.4132 95.9367 83.6115 96.4208 83.6115 96.9925C83.6115 97.5875 83.4132 98.0892 83.0165 98.4975C82.6315 98.8942 82.1123 99.0925 81.459 99.0925C80.8407 99.0925 80.3332 98.8942 79.9365 98.4975C79.5398 98.0892 79.3415 97.5875 79.3415 96.9925C79.3415 96.4208 79.5398 95.9367 79.9365 95.54C80.3332 95.1433 80.8407 94.945 81.459 94.945ZM110.093 121.072C109.463 121.492 108.699 121.819 107.8 122.053C106.902 122.286 106.021 122.403 105.158 122.403C103.174 122.403 101.646 121.883 100.573 120.845C99.4995 119.807 98.9628 118.471 98.9628 116.837V105.847H94.7278V103.572H98.9628V99.39L101.903 99.04V103.572H108.273L107.923 105.847H101.903V116.802C101.903 117.829 102.171 118.611 102.708 119.147C103.256 119.684 104.16 119.952 105.42 119.952C106.109 119.952 106.744 119.871 107.328 119.707C107.911 119.544 108.454 119.334 108.955 119.077L110.093 121.072ZM122.714 119.97C124.126 119.97 125.24 119.707 126.057 119.182C126.885 118.646 127.299 117.934 127.299 117.047C127.299 116.487 127.194 116.003 126.984 115.595C126.786 115.187 126.372 114.819 125.742 114.492C125.112 114.166 124.143 113.839 122.837 113.512C121.565 113.197 120.457 112.836 119.512 112.427C118.578 112.007 117.849 111.465 117.324 110.8C116.811 110.135 116.554 109.272 116.554 108.21C116.554 107.172 116.846 106.279 117.429 105.532C118.024 104.774 118.847 104.197 119.897 103.8C120.947 103.392 122.166 103.187 123.554 103.187C125.036 103.187 126.325 103.386 127.422 103.782C128.53 104.167 129.469 104.646 130.239 105.217L128.944 107.212C128.244 106.734 127.474 106.343 126.634 106.04C125.794 105.725 124.779 105.567 123.589 105.567C122.142 105.567 121.116 105.795 120.509 106.25C119.902 106.693 119.599 107.271 119.599 107.982C119.599 108.519 119.745 108.968 120.037 109.33C120.34 109.68 120.847 110.001 121.559 110.292C122.271 110.572 123.251 110.882 124.499 111.22C125.701 111.535 126.745 111.914 127.632 112.358C128.53 112.801 129.23 113.384 129.732 114.107C130.233 114.831 130.484 115.764 130.484 116.907C130.484 118.214 130.111 119.276 129.364 120.092C128.617 120.897 127.649 121.487 126.459 121.86C125.281 122.222 124.032 122.403 122.714 122.403C121.046 122.403 119.622 122.163 118.444 121.685C117.277 121.195 116.297 120.606 115.504 119.917L117.184 117.975C117.907 118.57 118.736 119.054 119.669 119.428C120.614 119.789 121.629 119.97 122.714 119.97Z" fill="white"/>
</svg>




